solid Uranium STLWriter Thu 17 Nov 2022 10:51:51
facet normal 0.0 0.0 0.0
  outer loop
    vertex -1.3775005340576172 7.871299743652344 -9.5367431640625e-07
    vertex -3.3770103454589844 8.016036033630371 1.9999990463256836
    vertex -1.3999996185302734 7.621319770812988 -9.5367431640625e-07
  endloop
endfacet
facet normal 0.0 0.0 0.0
  outer loop
    vertex -1.3999996185302734 7.621319770812988 -9.5367431640625e-07
    vertex -3.3770103454589844 8.016036033630371 1.9999990463256836
    vertex -3.3999996185302734 7.6213202476501465 1.9999988079071045
  endloop
endfacet
facet normal 0.0 0.0 0.0
  outer loop
    vertex -1.3999996185302734 7.621319770812988 -9.5367431640625e-07
    vertex -3.3999996185302734 7.6213202476501465 1.9999988079071045
    vertex -3.3770103454589844 7.2266035079956055 1.9999985694885254
  endloop
endfacet
facet normal 0.0 0.0 0.0
  outer loop
    vertex -3.3770103454589844 8.016036033630371 1.9999990463256836
    vertex -1.3775005340576172 7.871299743652344 -9.5367431640625e-07
    vertex -3.308352470397949 8.405413627624512 1.9999990463256836
  endloop
endfacet
facet normal 0.0 0.0 0.0
  outer loop
    vertex -3.308352470397949 8.405413627624512 1.9999990463256836
    vertex -1.3775005340576172 7.871299743652344 -9.5367431640625e-07
    vertex -1.3107290267944336 8.11324405670166 -9.5367431640625e-07
  endloop
endfacet
facet normal 0.0 0.0 0.0
  outer loop
    vertex -3.308352470397949 8.405413627624512 1.9999990463256836
    vertex -1.3107290267944336 8.11324405670166 -9.5367431640625e-07
    vertex -3.1949548721313477 8.784188270568848 1.999997615814209
  endloop
endfacet
facet normal 0.0 0.0 0.0
  outer loop
    vertex -3.1949548721313477 8.784188270568848 1.999997615814209
    vertex -1.3107290267944336 8.11324405670166 -9.5367431640625e-07
    vertex -3.038351058959961 9.147236824035645 1.9999992847442627
  endloop
endfacet
facet normal 0.0 0.0 0.0
  outer loop
    vertex -3.038351058959961 9.147236824035645 1.9999992847442627
    vertex -1.3107290267944336 8.11324405670166 -9.5367431640625e-07
    vertex -1.2018280029296875 8.33937931060791 -9.5367431640625e-07
  endloop
endfacet
facet normal 0.0 0.0 0.0
  outer loop
    vertex -3.038351058959961 9.147236824035645 1.9999992847442627
    vertex -1.2018280029296875 8.33937931060791 -9.5367431640625e-07
    vertex -2.840658187866211 9.489649772644043 1.9999992847442627
  endloop
endfacet
facet normal 0.0 0.0 0.0
  outer loop
    vertex -2.840658187866211 9.489649772644043 1.9999992847442627
    vertex -1.2018280029296875 8.33937931060791 -9.5367431640625e-07
    vertex -1.054300308227539 8.542433738708496 -9.5367431640625e-07
  endloop
endfacet
facet normal 0.0 0.0 0.0
  outer loop
    vertex -2.840658187866211 9.489649772644043 1.9999992847442627
    vertex -1.054300308227539 8.542433738708496 -9.5367431640625e-07
    vertex -2.604551315307617 9.806798934936523 1.9999983310699463
  endloop
endfacet
facet normal 0.0 0.0 0.0
  outer loop
    vertex -2.604551315307617 9.806798934936523 1.9999983310699463
    vertex -1.054300308227539 8.542433738708496 -9.5367431640625e-07
    vertex -2.333221435546875 10.094390869140625 1.9999988079071045
  endloop
endfacet
facet normal 0.0 0.0 0.0
  outer loop
    vertex -2.333221435546875 10.094390869140625 1.9999988079071045
    vertex -1.054300308227539 8.542433738708496 -9.5367431640625e-07
    vertex -0.8728857040405273 8.715883255004883 -9.5367431640625e-07
  endloop
endfacet
facet normal 0.0 0.0 0.0
  outer loop
    vertex -2.333221435546875 10.094390869140625 1.9999988079071045
    vertex -0.8728857040405273 8.715883255004883 -9.5367431640625e-07
    vertex -2.030339241027832 10.34853744506836 1.9999988079071045
  endloop
endfacet
facet normal 0.0 0.0 0.0
  outer loop
    vertex -2.030339241027832 10.34853744506836 1.9999988079071045
    vertex -0.8728857040405273 8.715883255004883 -9.5367431640625e-07
    vertex -0.6634159088134766 8.854154586791992 -9.5367431640625e-07
  endloop
endfacet
facet normal 0.0 0.0 0.0
  outer loop
    vertex -2.030339241027832 10.34853744506836 1.9999988079071045
    vertex -0.6634159088134766 8.854154586791992 -9.5367431640625e-07
    vertex -1.6999998092651367 10.565805435180664 1.9999983310699463
  endloop
endfacet
facet normal 0.0 0.0 0.0
  outer loop
    vertex -1.6999998092651367 10.565805435180664 1.9999983310699463
    vertex -0.6634159088134766 8.854154586791992 -9.5367431640625e-07
    vertex -1.3466711044311523 10.743254661560059 1.9999983310699463
  endloop
endfacet
facet normal 0.0 0.0 0.0
  outer loop
    vertex -1.3466711044311523 10.743254661560059 1.9999983310699463
    vertex -0.6634159088134766 8.854154586791992 -9.5367431640625e-07
    vertex -0.43262386322021484 8.952798843383789 -1.1920928955078125e-06
  endloop
endfacet
facet normal 0.0 0.0 0.0
  outer loop
    vertex -1.3466711044311523 10.743254661560059 1.9999983310699463
    vertex -0.43262386322021484 8.952798843383789 -1.1920928955078125e-06
    vertex -0.9751310348510742 10.878482818603516 1.9999988079071045
  endloop
endfacet
facet normal 0.0 0.0 0.0
  outer loop
    vertex -0.9751310348510742 10.878482818603516 1.9999988079071045
    vertex -0.43262386322021484 8.952798843383789 -1.1920928955078125e-06
    vertex -0.5904035568237305 10.96966552734375 1.9999983310699463
  endloop
endfacet
facet normal 0.0 0.0 0.0
  outer loop
    vertex -0.5904035568237305 10.96966552734375 1.9999983310699463
    vertex -0.43262386322021484 8.952798843383789 -1.1920928955078125e-06
    vertex -0.1879262924194336 9.008649826049805 -1.1920928955078125e-06
  endloop
endfacet
facet normal 0.0 0.0 0.0
  outer loop
    vertex -0.5904035568237305 10.96966552734375 1.9999983310699463
    vertex -0.1879262924194336 9.008649826049805 -1.1920928955078125e-06
    vertex -0.19769287109375 11.0155668258667 1.9999992847442627
  endloop
endfacet
facet normal 0.0 0.0 0.0
  outer loop
    vertex -0.19769287109375 11.0155668258667 1.9999992847442627
    vertex -0.1879262924194336 9.008649826049805 -1.1920928955078125e-06
    vertex 0.06281089782714844 9.019909858703613 -9.5367431640625e-07
  endloop
endfacet
facet normal 0.0 0.0 0.0
  outer loop
    vertex -0.19769287109375 11.0155668258667 1.9999992847442627
    vertex 0.06281089782714844 9.019909858703613 -9.5367431640625e-07
    vertex 0.19769287109375 11.0155668258667 1.9999992847442627
  endloop
endfacet
facet normal 0.0 0.0 0.0
  outer loop
    vertex 0.19769287109375 11.0155668258667 1.9999992847442627
    vertex 0.06281089782714844 9.019909858703613 -9.5367431640625e-07
    vertex 0.5904035568237305 10.96966552734375 1.9999983310699463
  endloop
endfacet
facet normal 0.0 0.0 0.0
  outer loop
    vertex 0.5904035568237305 10.96966552734375 1.9999983310699463
    vertex 0.06281089782714844 9.019909858703613 -9.5367431640625e-07
    vertex 0.31152915954589844 8.98621940612793 -9.5367431640625e-07
  endloop
endfacet
facet normal 0.0 0.0 0.0
  outer loop
    vertex 0.5904035568237305 10.96966552734375 1.9999983310699463
    vertex 0.31152915954589844 8.98621940612793 -9.5367431640625e-07
    vertex 0.9751310348510742 10.878482818603516 1.9999988079071045
  endloop
endfacet
facet normal 0.0 0.0 0.0
  outer loop
    vertex 0.9751310348510742 10.878482818603516 1.9999988079071045
    vertex 0.31152915954589844 8.98621940612793 -9.5367431640625e-07
    vertex 0.5502347946166992 8.908658027648926 -7.152557373046875e-07
  endloop
endfacet
facet normal 0.0 0.0 0.0
  outer loop
    vertex 0.9751310348510742 10.878482818603516 1.9999988079071045
    vertex 0.5502347946166992 8.908658027648926 -7.152557373046875e-07
    vertex 1.3466711044311523 10.743254661560059 1.9999983310699463
  endloop
endfacet
facet normal 0.0 0.0 0.0
  outer loop
    vertex 1.3466711044311523 10.743254661560059 1.9999983310699463
    vertex 0.5502347946166992 8.908658027648926 -7.152557373046875e-07
    vertex 1.6999998092651367 10.565805435180664 1.9999983310699463
  endloop
endfacet
facet normal 0.0 0.0 0.0
  outer loop
    vertex 1.6999998092651367 10.565805435180664 1.9999983310699463
    vertex 0.5502347946166992 8.908658027648926 -7.152557373046875e-07
    vertex 0.7712545394897461 8.789721488952637 -7.152557373046875e-07
  endloop
endfacet
facet normal 0.0 0.0 0.0
  outer loop
    vertex 1.6999998092651367 10.565805435180664 1.9999983310699463
    vertex 0.7712545394897461 8.789721488952637 -7.152557373046875e-07
    vertex 2.030339241027832 10.34853744506836 1.9999988079071045
  endloop
endfacet
facet normal 0.0 0.0 0.0
  outer loop
    vertex 2.030339241027832 10.34853744506836 1.9999988079071045
    vertex 0.7712545394897461 8.789721488952637 -7.152557373046875e-07
    vertex 0.9674873352050781 8.633232116699219 -7.152557373046875e-07
  endloop
endfacet
facet normal 0.0 0.0 0.0
  outer loop
    vertex 2.030339241027832 10.34853744506836 1.9999988079071045
    vertex 0.9674873352050781 8.633232116699219 -7.152557373046875e-07
    vertex 2.333221435546875 10.094390869140625 1.9999988079071045
  endloop
endfacet
facet normal 0.0 0.0 0.0
  outer loop
    vertex 2.333221435546875 10.094390869140625 1.9999988079071045
    vertex 0.9674873352050781 8.633232116699219 -7.152557373046875e-07
    vertex 2.604551315307617 9.806798934936523 1.9999983310699463
  endloop
endfacet
facet normal 0.0 0.0 0.0
  outer loop
    vertex 2.604551315307617 9.806798934936523 1.9999983310699463
    vertex 0.9674873352050781 8.633232116699219 -7.152557373046875e-07
    vertex 1.1326236724853516 8.444218635559082 -7.152557373046875e-07
  endloop
endfacet
facet normal 0.0 0.0 0.0
  outer loop
    vertex 2.604551315307617 9.806798934936523 1.9999983310699463
    vertex 1.1326236724853516 8.444218635559082 -7.152557373046875e-07
    vertex 2.840658187866211 9.489649772644043 1.9999992847442627
  endloop
endfacet
facet normal 0.0 0.0 0.0
  outer loop
    vertex 2.840658187866211 9.489649772644043 1.9999992847442627
    vertex 1.1326236724853516 8.444218635559082 -7.152557373046875e-07
    vertex 1.2613563537597656 8.228757858276367 -1.1920928955078125e-06
  endloop
endfacet
facet normal 0.0 0.0 0.0
  outer loop
    vertex 2.840658187866211 9.489649772644043 1.9999992847442627
    vertex 1.2613563537597656 8.228757858276367 -1.1920928955078125e-06
    vertex 3.038351058959961 9.147236824035645 1.9999992847442627
  endloop
endfacet
facet normal 0.0 0.0 0.0
  outer loop
    vertex 3.038351058959961 9.147236824035645 1.9999992847442627
    vertex 1.2613563537597656 8.228757858276367 -1.1920928955078125e-06
    vertex 3.1949548721313477 8.784188270568848 1.999997615814209
  endloop
endfacet
facet normal 0.0 0.0 0.0
  outer loop
    vertex 3.1949548721313477 8.784188270568848 1.999997615814209
    vertex 1.2613563537597656 8.228757858276367 -1.1920928955078125e-06
    vertex 1.34954833984375 7.993770599365234 -7.152557373046875e-07
  endloop
endfacet
facet normal 0.0 0.0 0.0
  outer loop
    vertex 3.1949548721313477 8.784188270568848 1.999997615814209
    vertex 1.34954833984375 7.993770599365234 -7.152557373046875e-07
    vertex 3.308352470397949 8.405413627624512 1.9999990463256836
  endloop
endfacet
facet normal 0.0 0.0 0.0
  outer loop
    vertex 3.308352470397949 8.405413627624512 1.9999990463256836
    vertex 1.34954833984375 7.993770599365234 -7.152557373046875e-07
    vertex 1.394364356994629 7.746814727783203 -9.5367431640625e-07
  endloop
endfacet
facet normal 0.0 0.0 0.0
  outer loop
    vertex 3.308352470397949 8.405413627624512 1.9999990463256836
    vertex 1.394364356994629 7.746814727783203 -9.5367431640625e-07
    vertex 3.3770103454589844 8.016036033630371 1.9999990463256836
  endloop
endfacet
facet normal 0.0 0.0 0.0
  outer loop
    vertex 3.3770103454589844 8.016036033630371 1.9999990463256836
    vertex 1.394364356994629 7.746814727783203 -9.5367431640625e-07
    vertex 3.3999996185302734 7.6213202476501465 1.9999988079071045
  endloop
endfacet
facet normal 0.0 0.0 0.0
  outer loop
    vertex 3.3999996185302734 7.6213202476501465 1.9999988079071045
    vertex 1.394364356994629 7.746814727783203 -9.5367431640625e-07
    vertex 1.394364356994629 7.495824813842773 -9.5367431640625e-07
  endloop
endfacet
facet normal 0.0 0.0 0.0
  outer loop
    vertex 3.3999996185302734 7.6213202476501465 1.9999988079071045
    vertex 1.394364356994629 7.495824813842773 -9.5367431640625e-07
    vertex 3.3770103454589844 7.2266035079956055 1.9999985694885254
  endloop
endfacet
facet normal 0.0 0.0 0.0
  outer loop
    vertex 3.3770103454589844 7.2266035079956055 1.9999985694885254
    vertex 1.394364356994629 7.495824813842773 -9.5367431640625e-07
    vertex 3.308352470397949 6.837225914001465 1.9999990463256836
  endloop
endfacet
facet normal 0.0 0.0 0.0
  outer loop
    vertex 3.308352470397949 6.837225914001465 1.9999990463256836
    vertex 1.394364356994629 7.495824813842773 -9.5367431640625e-07
    vertex 1.34954833984375 7.248869895935059 -9.5367431640625e-07
  endloop
endfacet
facet normal 0.0 0.0 0.0
  outer loop
    vertex 3.308352470397949 6.837225914001465 1.9999990463256836
    vertex 1.34954833984375 7.248869895935059 -9.5367431640625e-07
    vertex 3.1949548721313477 6.458451271057129 1.9999990463256836
  endloop
endfacet
facet normal 0.0 0.0 0.0
  outer loop
    vertex 3.1949548721313477 6.458451271057129 1.9999990463256836
    vertex 1.34954833984375 7.248869895935059 -9.5367431640625e-07
    vertex 1.2613563537597656 7.013883113861084 -1.1920928955078125e-06
  endloop
endfacet
facet normal 0.0 0.0 0.0
  outer loop
    vertex 3.1949548721313477 6.458451271057129 1.9999990463256836
    vertex 1.2613563537597656 7.013883113861084 -1.1920928955078125e-06
    vertex 3.038351058959961 6.095402717590332 1.9999983310699463
  endloop
endfacet
facet normal 0.0 0.0 0.0
  outer loop
    vertex 3.038351058959961 6.095402717590332 1.9999983310699463
    vertex 1.2613563537597656 7.013883113861084 -1.1920928955078125e-06
    vertex 2.840658187866211 5.752988815307617 1.9999990463256836
  endloop
endfacet
facet normal 0.0 0.0 0.0
  outer loop
    vertex 2.840658187866211 5.752988815307617 1.9999990463256836
    vertex 1.2613563537597656 7.013883113861084 -1.1920928955078125e-06
    vertex 1.1326236724853516 6.798419952392578 -7.152557373046875e-07
  endloop
endfacet
facet normal 0.0 0.0 0.0
  outer loop
    vertex 2.840658187866211 5.752988815307617 1.9999990463256836
    vertex 1.1326236724853516 6.798419952392578 -7.152557373046875e-07
    vertex 2.604551315307617 5.435842514038086 1.9999990463256836
  endloop
endfacet
facet normal 0.0 0.0 0.0
  outer loop
    vertex 2.604551315307617 5.435842514038086 1.9999990463256836
    vertex 1.1326236724853516 6.798419952392578 -7.152557373046875e-07
    vertex 0.9674873352050781 6.6094069480896 -1.1920928955078125e-06
  endloop
endfacet
facet normal 0.0 0.0 0.0
  outer loop
    vertex 2.604551315307617 5.435842514038086 1.9999990463256836
    vertex 0.9674873352050781 6.6094069480896 -1.1920928955078125e-06
    vertex 2.333221435546875 5.148249626159668 1.9999990463256836
  endloop
endfacet
facet normal 0.0 0.0 0.0
  outer loop
    vertex 2.333221435546875 5.148249626159668 1.9999990463256836
    vertex 0.9674873352050781 6.6094069480896 -1.1920928955078125e-06
    vertex 2.030339241027832 4.894101142883301 1.9999990463256836
  endloop
endfacet
facet normal 0.0 0.0 0.0
  outer loop
    vertex 2.030339241027832 4.894101142883301 1.9999990463256836
    vertex 0.9674873352050781 6.6094069480896 -1.1920928955078125e-06
    vertex 0.7712545394897461 6.452917098999023 -7.152557373046875e-07
  endloop
endfacet
facet normal 0.0 0.0 0.0
  outer loop
    vertex 2.030339241027832 4.894101142883301 1.9999990463256836
    vertex 0.7712545394897461 6.452917098999023 -7.152557373046875e-07
    vertex 1.6999998092651367 4.676833629608154 1.999998927116394
  endloop
endfacet
facet normal 0.0 0.0 0.0
  outer loop
    vertex 1.6999998092651367 4.676833629608154 1.999998927116394
    vertex 0.7712545394897461 6.452917098999023 -7.152557373046875e-07
    vertex 0.5502347946166992 6.333981037139893 -1.1920928955078125e-06
  endloop
endfacet
facet normal 0.0 0.0 0.0
  outer loop
    vertex 1.6999998092651367 4.676833629608154 1.999998927116394
    vertex 0.5502347946166992 6.333981037139893 -1.1920928955078125e-06
    vertex 1.3466711044311523 4.499385356903076 1.999998927116394
  endloop
endfacet
facet normal 0.0 0.0 0.0
  outer loop
    vertex 1.3466711044311523 4.499385356903076 1.999998927116394
    vertex 0.5502347946166992 6.333981037139893 -1.1920928955078125e-06
    vertex 0.9751310348510742 4.364155292510986 1.999998927116394
  endloop
endfacet
facet normal 0.0 0.0 0.0
  outer loop
    vertex 0.9751310348510742 4.364155292510986 1.999998927116394
    vertex 0.5502347946166992 6.333981037139893 -1.1920928955078125e-06
    vertex 0.31152915954589844 6.256422519683838 -1.1920928955078125e-06
  endloop
endfacet
facet normal 0.0 0.0 0.0
  outer loop
    vertex 0.9751310348510742 4.364155292510986 1.999998927116394
    vertex 0.31152915954589844 6.256422519683838 -1.1920928955078125e-06
    vertex 0.5904035568237305 4.272974014282227 1.9999990463256836
  endloop
endfacet
facet normal 0.0 0.0 0.0
  outer loop
    vertex 0.5904035568237305 4.272974014282227 1.9999990463256836
    vertex 0.31152915954589844 6.256422519683838 -1.1920928955078125e-06
    vertex 0.06281089782714844 6.222729682922363 -9.5367431640625e-07
  endloop
endfacet
facet normal 0.0 0.0 0.0
  outer loop
    vertex 0.5904035568237305 4.272974014282227 1.9999990463256836
    vertex 0.06281089782714844 6.222729682922363 -9.5367431640625e-07
    vertex 0.19769287109375 4.227072238922119 1.999998927116394
  endloop
endfacet
facet normal 0.0 0.0 0.0
  outer loop
    vertex 0.19769287109375 4.227072238922119 1.999998927116394
    vertex 0.06281089782714844 6.222729682922363 -9.5367431640625e-07
    vertex -0.19769287109375 4.227072238922119 1.999998927116394
  endloop
endfacet
facet normal 0.0 0.0 0.0
  outer loop
    vertex -0.19769287109375 4.227072238922119 1.999998927116394
    vertex 0.06281089782714844 6.222729682922363 -9.5367431640625e-07
    vertex -0.1879262924194336 6.233989715576172 -7.152557373046875e-07
  endloop
endfacet
facet normal 0.0 0.0 0.0
  outer loop
    vertex -0.19769287109375 4.227072238922119 1.999998927116394
    vertex -0.1879262924194336 6.233989715576172 -7.152557373046875e-07
    vertex -0.5904035568237305 4.272974014282227 1.9999990463256836
  endloop
endfacet
facet normal 0.0 0.0 0.0
  outer loop
    vertex -0.5904035568237305 4.272974014282227 1.9999990463256836
    vertex -0.1879262924194336 6.233989715576172 -7.152557373046875e-07
    vertex -0.43262386322021484 6.2898406982421875 -7.152557373046875e-07
  endloop
endfacet
facet normal 0.0 0.0 0.0
  outer loop
    vertex -0.5904035568237305 4.272974014282227 1.9999990463256836
    vertex -0.43262386322021484 6.2898406982421875 -7.152557373046875e-07
    vertex -0.9751310348510742 4.364155292510986 1.999998927116394
  endloop
endfacet
facet normal 0.0 0.0 0.0
  outer loop
    vertex -0.9751310348510742 4.364155292510986 1.999998927116394
    vertex -0.43262386322021484 6.2898406982421875 -7.152557373046875e-07
    vertex -1.3466711044311523 4.499385356903076 1.999998927116394
  endloop
endfacet
facet normal 0.0 0.0 0.0
  outer loop
    vertex -1.3466711044311523 4.499385356903076 1.999998927116394
    vertex -0.43262386322021484 6.2898406982421875 -7.152557373046875e-07
    vertex -0.6634159088134766 6.388485908508301 -7.152557373046875e-07
  endloop
endfacet
facet normal 0.0 0.0 0.0
  outer loop
    vertex -1.3466711044311523 4.499385356903076 1.999998927116394
    vertex -0.6634159088134766 6.388485908508301 -7.152557373046875e-07
    vertex -1.6999998092651367 4.676833629608154 1.999998927116394
  endloop
endfacet
facet normal 0.0 0.0 0.0
  outer loop
    vertex -1.6999998092651367 4.676833629608154 1.999998927116394
    vertex -0.6634159088134766 6.388485908508301 -7.152557373046875e-07
    vertex -2.030339241027832 4.894101142883301 1.9999990463256836
  endloop
endfacet
facet normal 0.0 0.0 0.0
  outer loop
    vertex -2.030339241027832 4.894101142883301 1.9999990463256836
    vertex -0.6634159088134766 6.388485908508301 -7.152557373046875e-07
    vertex -0.8728857040405273 6.5267558097839355 -1.1920928955078125e-06
  endloop
endfacet
facet normal 0.0 0.0 0.0
  outer loop
    vertex -2.030339241027832 4.894101142883301 1.9999990463256836
    vertex -0.8728857040405273 6.5267558097839355 -1.1920928955078125e-06
    vertex -2.333221435546875 5.148249626159668 1.9999990463256836
  endloop
endfacet
facet normal 0.0 0.0 0.0
  outer loop
    vertex -2.333221435546875 5.148249626159668 1.9999990463256836
    vertex -0.8728857040405273 6.5267558097839355 -1.1920928955078125e-06
    vertex -1.054300308227539 6.700205326080322 -1.1920928955078125e-06
  endloop
endfacet
facet normal 0.0 0.0 0.0
  outer loop
    vertex -2.333221435546875 5.148249626159668 1.9999990463256836
    vertex -1.054300308227539 6.700205326080322 -1.1920928955078125e-06
    vertex -2.604551315307617 5.435842514038086 1.9999990463256836
  endloop
endfacet
facet normal 0.0 0.0 0.0
  outer loop
    vertex -2.604551315307617 5.435842514038086 1.9999990463256836
    vertex -1.054300308227539 6.700205326080322 -1.1920928955078125e-06
    vertex -2.840658187866211 5.752988815307617 1.9999990463256836
  endloop
endfacet
facet normal 0.0 0.0 0.0
  outer loop
    vertex -2.840658187866211 5.752988815307617 1.9999990463256836
    vertex -1.054300308227539 6.700205326080322 -1.1920928955078125e-06
    vertex -1.2018280029296875 6.903261184692383 -7.152557373046875e-07
  endloop
endfacet
facet normal 0.0 0.0 0.0
  outer loop
    vertex -2.840658187866211 5.752988815307617 1.9999990463256836
    vertex -1.2018280029296875 6.903261184692383 -7.152557373046875e-07
    vertex -3.038351058959961 6.095402717590332 1.9999983310699463
  endloop
endfacet
facet normal 0.0 0.0 0.0
  outer loop
    vertex -3.038351058959961 6.095402717590332 1.9999983310699463
    vertex -1.2018280029296875 6.903261184692383 -7.152557373046875e-07
    vertex -1.3107290267944336 7.129395008087158 -1.1920928955078125e-06
  endloop
endfacet
facet normal 0.0 0.0 0.0
  outer loop
    vertex -3.038351058959961 6.095402717590332 1.9999983310699463
    vertex -1.3107290267944336 7.129395008087158 -1.1920928955078125e-06
    vertex -3.1949548721313477 6.458451271057129 1.9999990463256836
  endloop
endfacet
facet normal 0.0 0.0 0.0
  outer loop
    vertex -3.1949548721313477 6.458451271057129 1.9999990463256836
    vertex -1.3107290267944336 7.129395008087158 -1.1920928955078125e-06
    vertex -3.308352470397949 6.837225914001465 1.9999990463256836
  endloop
endfacet
facet normal 0.0 0.0 0.0
  outer loop
    vertex -3.308352470397949 6.837225914001465 1.9999990463256836
    vertex -1.3107290267944336 7.129395008087158 -1.1920928955078125e-06
    vertex -1.3775005340576172 7.371339797973633 -9.5367431640625e-07
  endloop
endfacet
facet normal 0.0 0.0 0.0
  outer loop
    vertex -3.308352470397949 6.837225914001465 1.9999990463256836
    vertex -1.3775005340576172 7.371339797973633 -9.5367431640625e-07
    vertex -3.3770103454589844 7.2266035079956055 1.9999985694885254
  endloop
endfacet
facet normal 0.0 0.0 0.0
  outer loop
    vertex -3.3770103454589844 7.2266035079956055 1.9999985694885254
    vertex -1.3775005340576172 7.371339797973633 -9.5367431640625e-07
    vertex -1.3999996185302734 7.621319770812988 -9.5367431640625e-07
  endloop
endfacet
facet normal 0.0 0.0 0.0
  outer loop
    vertex 12.5 2.985280752182007 12.727919578552246
    vertex 12.5 2.9852802753448486 1.9999990463256836
    vertex -12.5 2.985280752182007 12.727919578552246
  endloop
endfacet
facet normal 0.0 0.0 0.0
  outer loop
    vertex -12.5 2.985280752182007 12.727919578552246
    vertex 12.5 2.9852802753448486 1.9999990463256836
    vertex -12.5 2.9852802753448486 1.9999990463256836
  endloop
endfacet
facet normal 0.0 0.0 0.0
  outer loop
    vertex 12.5 0.2573589086532593 1.9999985694885254
    vertex 12.5 0.2573590874671936 9.999998092651367
    vertex -12.5 0.2573589086532593 1.9999985694885254
  endloop
endfacet
facet normal 0.0 0.0 0.0
  outer loop
    vertex -12.5 0.2573589086532593 1.9999985694885254
    vertex 12.5 0.2573590874671936 9.999998092651367
    vertex -12.5 0.2573590874671936 9.999998092651367
  endloop
endfacet
facet normal 0.0 0.0 0.0
  outer loop
    vertex -12.5 0.2573590874671936 9.999998092651367
    vertex 12.5 0.2573590874671936 9.999998092651367
    vertex -12.5 -7.742639541625977 1.9999992847442627
  endloop
endfacet
facet normal 0.0 0.0 0.0
  outer loop
    vertex -12.5 -7.742639541625977 1.9999992847442627
    vertex 12.5 0.2573590874671936 9.999998092651367
    vertex 12.5 -7.742639541625977 1.9999992847442627
  endloop
endfacet
facet normal 0.0 0.0 0.0
  outer loop
    vertex -12.5 0.2573589086532593 1.9999985694885254
    vertex -12.5 -7.742639541625977 1.9999992847442627
    vertex 12.5 0.2573589086532593 1.9999985694885254
  endloop
endfacet
facet normal 0.0 0.0 0.0
  outer loop
    vertex 12.5 0.2573589086532593 1.9999985694885254
    vertex -12.5 -7.742639541625977 1.9999992847442627
    vertex 12.5 -7.742639541625977 1.9999992847442627
  endloop
endfacet
facet normal 0.0 0.0 0.0
  outer loop
    vertex 3.3770103454589844 7.2266035079956055 1.9999985694885254
    vertex 12.5 2.9852802753448486 1.9999990463256836
    vertex 3.3999996185302734 7.6213202476501465 1.9999988079071045
  endloop
endfacet
facet normal 0.0 0.0 0.0
  outer loop
    vertex 3.3999996185302734 7.6213202476501465 1.9999988079071045
    vertex 12.5 2.9852802753448486 1.9999990463256836
    vertex 12.5 12.257357597351074 1.9999983310699463
  endloop
endfacet
facet normal 0.0 0.0 0.0
  outer loop
    vertex 3.3999996185302734 7.6213202476501465 1.9999988079071045
    vertex 12.5 12.257357597351074 1.9999983310699463
    vertex 3.3770103454589844 8.016036033630371 1.9999990463256836
  endloop
endfacet
facet normal 0.0 0.0 0.0
  outer loop
    vertex 3.3770103454589844 8.016036033630371 1.9999990463256836
    vertex 12.5 12.257357597351074 1.9999983310699463
    vertex 3.308352470397949 8.405413627624512 1.9999990463256836
  endloop
endfacet
facet normal 0.0 0.0 0.0
  outer loop
    vertex 3.308352470397949 8.405413627624512 1.9999990463256836
    vertex 12.5 12.257357597351074 1.9999983310699463
    vertex 3.1949548721313477 8.784188270568848 1.999997615814209
  endloop
endfacet
facet normal 0.0 0.0 0.0
  outer loop
    vertex 3.1949548721313477 8.784188270568848 1.999997615814209
    vertex 12.5 12.257357597351074 1.9999983310699463
    vertex 3.038351058959961 9.147236824035645 1.9999992847442627
  endloop
endfacet
facet normal 0.0 0.0 0.0
  outer loop
    vertex 3.038351058959961 9.147236824035645 1.9999992847442627
    vertex 12.5 12.257357597351074 1.9999983310699463
    vertex 2.840658187866211 9.489649772644043 1.9999992847442627
  endloop
endfacet
facet normal 0.0 0.0 0.0
  outer loop
    vertex 2.840658187866211 9.489649772644043 1.9999992847442627
    vertex 12.5 12.257357597351074 1.9999983310699463
    vertex 2.604551315307617 9.806798934936523 1.9999983310699463
  endloop
endfacet
facet normal 0.0 0.0 0.0
  outer loop
    vertex 2.604551315307617 9.806798934936523 1.9999983310699463
    vertex 12.5 12.257357597351074 1.9999983310699463
    vertex 2.333221435546875 10.094390869140625 1.9999988079071045
  endloop
endfacet
facet normal 0.0 0.0 0.0
  outer loop
    vertex 2.333221435546875 10.094390869140625 1.9999988079071045
    vertex 12.5 12.257357597351074 1.9999983310699463
    vertex 2.030339241027832 10.34853744506836 1.9999988079071045
  endloop
endfacet
facet normal 0.0 0.0 0.0
  outer loop
    vertex 2.030339241027832 10.34853744506836 1.9999988079071045
    vertex 12.5 12.257357597351074 1.9999983310699463
    vertex 1.6999998092651367 10.565805435180664 1.9999983310699463
  endloop
endfacet
facet normal 0.0 0.0 0.0
  outer loop
    vertex 1.6999998092651367 10.565805435180664 1.9999983310699463
    vertex 12.5 12.257357597351074 1.9999983310699463
    vertex 1.3466711044311523 10.743254661560059 1.9999983310699463
  endloop
endfacet
facet normal 0.0 0.0 0.0
  outer loop
    vertex 1.3466711044311523 10.743254661560059 1.9999983310699463
    vertex 12.5 12.257357597351074 1.9999983310699463
    vertex 0.9751310348510742 10.878482818603516 1.9999988079071045
  endloop
endfacet
facet normal 0.0 0.0 0.0
  outer loop
    vertex 0.9751310348510742 10.878482818603516 1.9999988079071045
    vertex 12.5 12.257357597351074 1.9999983310699463
    vertex 0.5904035568237305 10.96966552734375 1.9999983310699463
  endloop
endfacet
facet normal 0.0 0.0 0.0
  outer loop
    vertex 0.5904035568237305 10.96966552734375 1.9999983310699463
    vertex 12.5 12.257357597351074 1.9999983310699463
    vertex 0.19769287109375 11.0155668258667 1.9999992847442627
  endloop
endfacet
facet normal 0.0 0.0 0.0
  outer loop
    vertex 0.19769287109375 11.0155668258667 1.9999992847442627
    vertex 12.5 12.257357597351074 1.9999983310699463
    vertex -0.19769287109375 11.0155668258667 1.9999992847442627
  endloop
endfacet
facet normal 0.0 0.0 0.0
  outer loop
    vertex -0.19769287109375 11.0155668258667 1.9999992847442627
    vertex 12.5 12.257357597351074 1.9999983310699463
    vertex -12.5 12.257357597351074 1.9999983310699463
  endloop
endfacet
facet normal 0.0 0.0 0.0
  outer loop
    vertex -0.19769287109375 11.0155668258667 1.9999992847442627
    vertex -12.5 12.257357597351074 1.9999983310699463
    vertex -0.5904035568237305 10.96966552734375 1.9999983310699463
  endloop
endfacet
facet normal 0.0 0.0 0.0
  outer loop
    vertex -0.5904035568237305 10.96966552734375 1.9999983310699463
    vertex -12.5 12.257357597351074 1.9999983310699463
    vertex -0.9751310348510742 10.878482818603516 1.9999988079071045
  endloop
endfacet
facet normal 0.0 0.0 0.0
  outer loop
    vertex -0.9751310348510742 10.878482818603516 1.9999988079071045
    vertex -12.5 12.257357597351074 1.9999983310699463
    vertex -1.3466711044311523 10.743254661560059 1.9999983310699463
  endloop
endfacet
facet normal 0.0 0.0 0.0
  outer loop
    vertex -1.3466711044311523 10.743254661560059 1.9999983310699463
    vertex -12.5 12.257357597351074 1.9999983310699463
    vertex -1.6999998092651367 10.565805435180664 1.9999983310699463
  endloop
endfacet
facet normal 0.0 0.0 0.0
  outer loop
    vertex -1.6999998092651367 10.565805435180664 1.9999983310699463
    vertex -12.5 12.257357597351074 1.9999983310699463
    vertex -2.030339241027832 10.34853744506836 1.9999988079071045
  endloop
endfacet
facet normal 0.0 0.0 0.0
  outer loop
    vertex -2.030339241027832 10.34853744506836 1.9999988079071045
    vertex -12.5 12.257357597351074 1.9999983310699463
    vertex -2.333221435546875 10.094390869140625 1.9999988079071045
  endloop
endfacet
facet normal 0.0 0.0 0.0
  outer loop
    vertex -2.333221435546875 10.094390869140625 1.9999988079071045
    vertex -12.5 12.257357597351074 1.9999983310699463
    vertex -2.604551315307617 9.806798934936523 1.9999983310699463
  endloop
endfacet
facet normal 0.0 0.0 0.0
  outer loop
    vertex -2.604551315307617 9.806798934936523 1.9999983310699463
    vertex -12.5 12.257357597351074 1.9999983310699463
    vertex -2.840658187866211 9.489649772644043 1.9999992847442627
  endloop
endfacet
facet normal 0.0 0.0 0.0
  outer loop
    vertex -2.840658187866211 9.489649772644043 1.9999992847442627
    vertex -12.5 12.257357597351074 1.9999983310699463
    vertex -3.038351058959961 9.147236824035645 1.9999992847442627
  endloop
endfacet
facet normal 0.0 0.0 0.0
  outer loop
    vertex -3.038351058959961 9.147236824035645 1.9999992847442627
    vertex -12.5 12.257357597351074 1.9999983310699463
    vertex -3.1949548721313477 8.784188270568848 1.999997615814209
  endloop
endfacet
facet normal 0.0 0.0 0.0
  outer loop
    vertex -3.1949548721313477 8.784188270568848 1.999997615814209
    vertex -12.5 12.257357597351074 1.9999983310699463
    vertex -3.308352470397949 8.405413627624512 1.9999990463256836
  endloop
endfacet
facet normal 0.0 0.0 0.0
  outer loop
    vertex -3.308352470397949 8.405413627624512 1.9999990463256836
    vertex -12.5 12.257357597351074 1.9999983310699463
    vertex -3.3770103454589844 8.016036033630371 1.9999990463256836
  endloop
endfacet
facet normal 0.0 0.0 0.0
  outer loop
    vertex -3.3770103454589844 8.016036033630371 1.9999990463256836
    vertex -12.5 12.257357597351074 1.9999983310699463
    vertex -3.3999996185302734 7.6213202476501465 1.9999988079071045
  endloop
endfacet
facet normal 0.0 0.0 0.0
  outer loop
    vertex -3.3999996185302734 7.6213202476501465 1.9999988079071045
    vertex -12.5 12.257357597351074 1.9999983310699463
    vertex -12.5 2.9852802753448486 1.9999990463256836
  endloop
endfacet
facet normal 0.0 0.0 0.0
  outer loop
    vertex -3.3999996185302734 7.6213202476501465 1.9999988079071045
    vertex -12.5 2.9852802753448486 1.9999990463256836
    vertex -3.3770103454589844 7.2266035079956055 1.9999985694885254
  endloop
endfacet
facet normal 0.0 0.0 0.0
  outer loop
    vertex -3.3770103454589844 7.2266035079956055 1.9999985694885254
    vertex -12.5 2.9852802753448486 1.9999990463256836
    vertex -3.308352470397949 6.837225914001465 1.9999990463256836
  endloop
endfacet
facet normal 0.0 0.0 0.0
  outer loop
    vertex -3.308352470397949 6.837225914001465 1.9999990463256836
    vertex -12.5 2.9852802753448486 1.9999990463256836
    vertex -3.1949548721313477 6.458451271057129 1.9999990463256836
  endloop
endfacet
facet normal 0.0 0.0 0.0
  outer loop
    vertex -3.1949548721313477 6.458451271057129 1.9999990463256836
    vertex -12.5 2.9852802753448486 1.9999990463256836
    vertex -3.038351058959961 6.095402717590332 1.9999983310699463
  endloop
endfacet
facet normal 0.0 0.0 0.0
  outer loop
    vertex -3.038351058959961 6.095402717590332 1.9999983310699463
    vertex -12.5 2.9852802753448486 1.9999990463256836
    vertex -2.840658187866211 5.752988815307617 1.9999990463256836
  endloop
endfacet
facet normal 0.0 0.0 0.0
  outer loop
    vertex -2.840658187866211 5.752988815307617 1.9999990463256836
    vertex -12.5 2.9852802753448486 1.9999990463256836
    vertex -2.604551315307617 5.435842514038086 1.9999990463256836
  endloop
endfacet
facet normal 0.0 0.0 0.0
  outer loop
    vertex -2.604551315307617 5.435842514038086 1.9999990463256836
    vertex -12.5 2.9852802753448486 1.9999990463256836
    vertex -2.333221435546875 5.148249626159668 1.9999990463256836
  endloop
endfacet
facet normal 0.0 0.0 0.0
  outer loop
    vertex -2.333221435546875 5.148249626159668 1.9999990463256836
    vertex -12.5 2.9852802753448486 1.9999990463256836
    vertex -2.030339241027832 4.894101142883301 1.9999990463256836
  endloop
endfacet
facet normal 0.0 0.0 0.0
  outer loop
    vertex -2.030339241027832 4.894101142883301 1.9999990463256836
    vertex -12.5 2.9852802753448486 1.9999990463256836
    vertex -1.6999998092651367 4.676833629608154 1.999998927116394
  endloop
endfacet
facet normal 0.0 0.0 0.0
  outer loop
    vertex -1.6999998092651367 4.676833629608154 1.999998927116394
    vertex -12.5 2.9852802753448486 1.9999990463256836
    vertex -1.3466711044311523 4.499385356903076 1.999998927116394
  endloop
endfacet
facet normal 0.0 0.0 0.0
  outer loop
    vertex -1.3466711044311523 4.499385356903076 1.999998927116394
    vertex -12.5 2.9852802753448486 1.9999990463256836
    vertex -0.9751310348510742 4.364155292510986 1.999998927116394
  endloop
endfacet
facet normal 0.0 0.0 0.0
  outer loop
    vertex -0.9751310348510742 4.364155292510986 1.999998927116394
    vertex -12.5 2.9852802753448486 1.9999990463256836
    vertex -0.5904035568237305 4.272974014282227 1.9999990463256836
  endloop
endfacet
facet normal 0.0 0.0 0.0
  outer loop
    vertex -0.5904035568237305 4.272974014282227 1.9999990463256836
    vertex -12.5 2.9852802753448486 1.9999990463256836
    vertex -0.19769287109375 4.227072238922119 1.999998927116394
  endloop
endfacet
facet normal 0.0 0.0 0.0
  outer loop
    vertex -0.19769287109375 4.227072238922119 1.999998927116394
    vertex -12.5 2.9852802753448486 1.9999990463256836
    vertex 12.5 2.9852802753448486 1.9999990463256836
  endloop
endfacet
facet normal 0.0 0.0 0.0
  outer loop
    vertex -0.19769287109375 4.227072238922119 1.999998927116394
    vertex 12.5 2.9852802753448486 1.9999990463256836
    vertex 0.19769287109375 4.227072238922119 1.999998927116394
  endloop
endfacet
facet normal 0.0 0.0 0.0
  outer loop
    vertex 0.19769287109375 4.227072238922119 1.999998927116394
    vertex 12.5 2.9852802753448486 1.9999990463256836
    vertex 0.5904035568237305 4.272974014282227 1.9999990463256836
  endloop
endfacet
facet normal 0.0 0.0 0.0
  outer loop
    vertex 0.5904035568237305 4.272974014282227 1.9999990463256836
    vertex 12.5 2.9852802753448486 1.9999990463256836
    vertex 0.9751310348510742 4.364155292510986 1.999998927116394
  endloop
endfacet
facet normal 0.0 0.0 0.0
  outer loop
    vertex 0.9751310348510742 4.364155292510986 1.999998927116394
    vertex 12.5 2.9852802753448486 1.9999990463256836
    vertex 1.3466711044311523 4.499385356903076 1.999998927116394
  endloop
endfacet
facet normal 0.0 0.0 0.0
  outer loop
    vertex 1.3466711044311523 4.499385356903076 1.999998927116394
    vertex 12.5 2.9852802753448486 1.9999990463256836
    vertex 1.6999998092651367 4.676833629608154 1.999998927116394
  endloop
endfacet
facet normal 0.0 0.0 0.0
  outer loop
    vertex 1.6999998092651367 4.676833629608154 1.999998927116394
    vertex 12.5 2.9852802753448486 1.9999990463256836
    vertex 2.030339241027832 4.894101142883301 1.9999990463256836
  endloop
endfacet
facet normal 0.0 0.0 0.0
  outer loop
    vertex 2.030339241027832 4.894101142883301 1.9999990463256836
    vertex 12.5 2.9852802753448486 1.9999990463256836
    vertex 2.333221435546875 5.148249626159668 1.9999990463256836
  endloop
endfacet
facet normal 0.0 0.0 0.0
  outer loop
    vertex 2.333221435546875 5.148249626159668 1.9999990463256836
    vertex 12.5 2.9852802753448486 1.9999990463256836
    vertex 2.604551315307617 5.435842514038086 1.9999990463256836
  endloop
endfacet
facet normal 0.0 0.0 0.0
  outer loop
    vertex 2.604551315307617 5.435842514038086 1.9999990463256836
    vertex 12.5 2.9852802753448486 1.9999990463256836
    vertex 2.840658187866211 5.752988815307617 1.9999990463256836
  endloop
endfacet
facet normal 0.0 0.0 0.0
  outer loop
    vertex 2.840658187866211 5.752988815307617 1.9999990463256836
    vertex 12.5 2.9852802753448486 1.9999990463256836
    vertex 3.038351058959961 6.095402717590332 1.9999983310699463
  endloop
endfacet
facet normal 0.0 0.0 0.0
  outer loop
    vertex 3.038351058959961 6.095402717590332 1.9999983310699463
    vertex 12.5 2.9852802753448486 1.9999990463256836
    vertex 3.1949548721313477 6.458451271057129 1.9999990463256836
  endloop
endfacet
facet normal 0.0 0.0 0.0
  outer loop
    vertex 3.1949548721313477 6.458451271057129 1.9999990463256836
    vertex 12.5 2.9852802753448486 1.9999990463256836
    vertex 3.308352470397949 6.837225914001465 1.9999990463256836
  endloop
endfacet
facet normal 0.0 0.0 0.0
  outer loop
    vertex 3.308352470397949 6.837225914001465 1.9999990463256836
    vertex 12.5 2.9852802753448486 1.9999990463256836
    vertex 3.3770103454589844 7.2266035079956055 1.9999985694885254
  endloop
endfacet
facet normal 0.0 0.0 0.0
  outer loop
    vertex -12.5 -1.257359266281128 16.97056007385254
    vertex 12.5 -1.257359266281128 16.97056007385254
    vertex -12.5 2.985280752182007 12.727919578552246
  endloop
endfacet
facet normal 0.0 0.0 0.0
  outer loop
    vertex -12.5 2.985280752182007 12.727919578552246
    vertex 12.5 -1.257359266281128 16.97056007385254
    vertex 12.5 2.985280752182007 12.727919578552246
  endloop
endfacet
facet normal 0.0 0.0 0.0
  outer loop
    vertex 12.5 -13.985279083251953 4.242639541625977
    vertex -12.5 -13.985279083251953 4.242639541625977
    vertex 12.5 -9.742639541625977 -7.152557373046875e-07
  endloop
endfacet
facet normal 0.0 0.0 0.0
  outer loop
    vertex 12.5 -9.742639541625977 -7.152557373046875e-07
    vertex -12.5 -13.985279083251953 4.242639541625977
    vertex -12.5 -9.742639541625977 -7.152557373046875e-07
  endloop
endfacet
facet normal 0.0 0.0 0.0
  outer loop
    vertex -1.3775005340576172 7.871299743652344 -9.5367431640625e-07
    vertex -1.3999996185302734 7.621319770812988 -9.5367431640625e-07
    vertex -12.5 12.257357597351074 -7.152557373046875e-07
  endloop
endfacet
facet normal 0.0 0.0 0.0
  outer loop
    vertex -12.5 12.257357597351074 -7.152557373046875e-07
    vertex -1.3999996185302734 7.621319770812988 -9.5367431640625e-07
    vertex -1.3775005340576172 7.371339797973633 -9.5367431640625e-07
  endloop
endfacet
facet normal 0.0 0.0 0.0
  outer loop
    vertex -12.5 12.257357597351074 -7.152557373046875e-07
    vertex -1.3775005340576172 7.371339797973633 -9.5367431640625e-07
    vertex -1.3107290267944336 7.129395008087158 -1.1920928955078125e-06
  endloop
endfacet
facet normal 0.0 0.0 0.0
  outer loop
    vertex -1.3107290267944336 7.129395008087158 -1.1920928955078125e-06
    vertex -1.2018280029296875 6.903261184692383 -7.152557373046875e-07
    vertex -12.5 12.257357597351074 -7.152557373046875e-07
  endloop
endfacet
facet normal 0.0 0.0 0.0
  outer loop
    vertex -12.5 12.257357597351074 -7.152557373046875e-07
    vertex -1.2018280029296875 6.903261184692383 -7.152557373046875e-07
    vertex -12.5 -9.742639541625977 -7.152557373046875e-07
  endloop
endfacet
facet normal 0.0 0.0 0.0
  outer loop
    vertex -12.5 -9.742639541625977 -7.152557373046875e-07
    vertex -1.2018280029296875 6.903261184692383 -7.152557373046875e-07
    vertex -1.054300308227539 6.700205326080322 -1.1920928955078125e-06
  endloop
endfacet
facet normal 0.0 0.0 0.0
  outer loop
    vertex -12.5 -9.742639541625977 -7.152557373046875e-07
    vertex -1.054300308227539 6.700205326080322 -1.1920928955078125e-06
    vertex -0.8728857040405273 6.5267558097839355 -1.1920928955078125e-06
  endloop
endfacet
facet normal 0.0 0.0 0.0
  outer loop
    vertex -0.8728857040405273 6.5267558097839355 -1.1920928955078125e-06
    vertex -0.6634159088134766 6.388485908508301 -7.152557373046875e-07
    vertex -12.5 -9.742639541625977 -7.152557373046875e-07
  endloop
endfacet
facet normal 0.0 0.0 0.0
  outer loop
    vertex -12.5 -9.742639541625977 -7.152557373046875e-07
    vertex -0.6634159088134766 6.388485908508301 -7.152557373046875e-07
    vertex -0.43262386322021484 6.2898406982421875 -7.152557373046875e-07
  endloop
endfacet
facet normal 0.0 0.0 0.0
  outer loop
    vertex -12.5 -9.742639541625977 -7.152557373046875e-07
    vertex -0.43262386322021484 6.2898406982421875 -7.152557373046875e-07
    vertex -0.1879262924194336 6.233989715576172 -7.152557373046875e-07
  endloop
endfacet
facet normal 0.0 0.0 0.0
  outer loop
    vertex -0.1879262924194336 6.233989715576172 -7.152557373046875e-07
    vertex 0.06281089782714844 6.222729682922363 -9.5367431640625e-07
    vertex -12.5 -9.742639541625977 -7.152557373046875e-07
  endloop
endfacet
facet normal 0.0 0.0 0.0
  outer loop
    vertex -12.5 -9.742639541625977 -7.152557373046875e-07
    vertex 0.06281089782714844 6.222729682922363 -9.5367431640625e-07
    vertex 12.5 -9.742639541625977 -7.152557373046875e-07
  endloop
endfacet
facet normal 0.0 0.0 0.0
  outer loop
    vertex 12.5 -9.742639541625977 -7.152557373046875e-07
    vertex 0.06281089782714844 6.222729682922363 -9.5367431640625e-07
    vertex 0.31152915954589844 6.256422519683838 -1.1920928955078125e-06
  endloop
endfacet
facet normal 0.0 0.0 0.0
  outer loop
    vertex 12.5 -9.742639541625977 -7.152557373046875e-07
    vertex 0.31152915954589844 6.256422519683838 -1.1920928955078125e-06
    vertex 0.5502347946166992 6.333981037139893 -1.1920928955078125e-06
  endloop
endfacet
facet normal 0.0 0.0 0.0
  outer loop
    vertex 0.5502347946166992 6.333981037139893 -1.1920928955078125e-06
    vertex 0.7712545394897461 6.452917098999023 -7.152557373046875e-07
    vertex 12.5 -9.742639541625977 -7.152557373046875e-07
  endloop
endfacet
facet normal 0.0 0.0 0.0
  outer loop
    vertex 12.5 -9.742639541625977 -7.152557373046875e-07
    vertex 0.7712545394897461 6.452917098999023 -7.152557373046875e-07
    vertex 0.9674873352050781 6.6094069480896 -1.1920928955078125e-06
  endloop
endfacet
facet normal 0.0 0.0 0.0
  outer loop
    vertex 12.5 -9.742639541625977 -7.152557373046875e-07
    vertex 0.9674873352050781 6.6094069480896 -1.1920928955078125e-06
    vertex 1.1326236724853516 6.798419952392578 -7.152557373046875e-07
  endloop
endfacet
facet normal 0.0 0.0 0.0
  outer loop
    vertex 12.5 -9.742639541625977 -7.152557373046875e-07
    vertex 1.1326236724853516 6.798419952392578 -7.152557373046875e-07
    vertex 12.5 12.257357597351074 -7.152557373046875e-07
  endloop
endfacet
facet normal 0.0 0.0 0.0
  outer loop
    vertex 12.5 12.257357597351074 -7.152557373046875e-07
    vertex 1.1326236724853516 6.798419952392578 -7.152557373046875e-07
    vertex 1.2613563537597656 7.013883113861084 -1.1920928955078125e-06
  endloop
endfacet
facet normal 0.0 0.0 0.0
  outer loop
    vertex 12.5 12.257357597351074 -7.152557373046875e-07
    vertex 1.2613563537597656 7.013883113861084 -1.1920928955078125e-06
    vertex 1.34954833984375 7.248869895935059 -9.5367431640625e-07
  endloop
endfacet
facet normal 0.0 0.0 0.0
  outer loop
    vertex 1.34954833984375 7.248869895935059 -9.5367431640625e-07
    vertex 1.394364356994629 7.495824813842773 -9.5367431640625e-07
    vertex 12.5 12.257357597351074 -7.152557373046875e-07
  endloop
endfacet
facet normal 0.0 0.0 0.0
  outer loop
    vertex 12.5 12.257357597351074 -7.152557373046875e-07
    vertex 1.394364356994629 7.495824813842773 -9.5367431640625e-07
    vertex 1.394364356994629 7.746814727783203 -9.5367431640625e-07
  endloop
endfacet
facet normal 0.0 0.0 0.0
  outer loop
    vertex 12.5 12.257357597351074 -7.152557373046875e-07
    vertex 1.394364356994629 7.746814727783203 -9.5367431640625e-07
    vertex 1.34954833984375 7.993770599365234 -7.152557373046875e-07
  endloop
endfacet
facet normal 0.0 0.0 0.0
  outer loop
    vertex 1.34954833984375 7.993770599365234 -7.152557373046875e-07
    vertex 1.2613563537597656 8.228757858276367 -1.1920928955078125e-06
    vertex 12.5 12.257357597351074 -7.152557373046875e-07
  endloop
endfacet
facet normal 0.0 0.0 0.0
  outer loop
    vertex 12.5 12.257357597351074 -7.152557373046875e-07
    vertex 1.2613563537597656 8.228757858276367 -1.1920928955078125e-06
    vertex 1.1326236724853516 8.444218635559082 -7.152557373046875e-07
  endloop
endfacet
facet normal 0.0 0.0 0.0
  outer loop
    vertex 12.5 12.257357597351074 -7.152557373046875e-07
    vertex 1.1326236724853516 8.444218635559082 -7.152557373046875e-07
    vertex 0.9674873352050781 8.633232116699219 -7.152557373046875e-07
  endloop
endfacet
facet normal 0.0 0.0 0.0
  outer loop
    vertex 0.9674873352050781 8.633232116699219 -7.152557373046875e-07
    vertex 0.7712545394897461 8.789721488952637 -7.152557373046875e-07
    vertex 12.5 12.257357597351074 -7.152557373046875e-07
  endloop
endfacet
facet normal 0.0 0.0 0.0
  outer loop
    vertex 12.5 12.257357597351074 -7.152557373046875e-07
    vertex 0.7712545394897461 8.789721488952637 -7.152557373046875e-07
    vertex 0.5502347946166992 8.908658027648926 -7.152557373046875e-07
  endloop
endfacet
facet normal 0.0 0.0 0.0
  outer loop
    vertex 12.5 12.257357597351074 -7.152557373046875e-07
    vertex 0.5502347946166992 8.908658027648926 -7.152557373046875e-07
    vertex 0.31152915954589844 8.98621940612793 -9.5367431640625e-07
  endloop
endfacet
facet normal 0.0 0.0 0.0
  outer loop
    vertex 0.31152915954589844 8.98621940612793 -9.5367431640625e-07
    vertex 0.06281089782714844 9.019909858703613 -9.5367431640625e-07
    vertex 12.5 12.257357597351074 -7.152557373046875e-07
  endloop
endfacet
facet normal 0.0 0.0 0.0
  outer loop
    vertex 12.5 12.257357597351074 -7.152557373046875e-07
    vertex 0.06281089782714844 9.019909858703613 -9.5367431640625e-07
    vertex -12.5 12.257357597351074 -7.152557373046875e-07
  endloop
endfacet
facet normal 0.0 0.0 0.0
  outer loop
    vertex -12.5 12.257357597351074 -7.152557373046875e-07
    vertex 0.06281089782714844 9.019909858703613 -9.5367431640625e-07
    vertex -0.1879262924194336 9.008649826049805 -1.1920928955078125e-06
  endloop
endfacet
facet normal 0.0 0.0 0.0
  outer loop
    vertex -12.5 12.257357597351074 -7.152557373046875e-07
    vertex -0.1879262924194336 9.008649826049805 -1.1920928955078125e-06
    vertex -0.43262386322021484 8.952798843383789 -1.1920928955078125e-06
  endloop
endfacet
facet normal 0.0 0.0 0.0
  outer loop
    vertex -0.43262386322021484 8.952798843383789 -1.1920928955078125e-06
    vertex -0.6634159088134766 8.854154586791992 -9.5367431640625e-07
    vertex -12.5 12.257357597351074 -7.152557373046875e-07
  endloop
endfacet
facet normal 0.0 0.0 0.0
  outer loop
    vertex -12.5 12.257357597351074 -7.152557373046875e-07
    vertex -0.6634159088134766 8.854154586791992 -9.5367431640625e-07
    vertex -0.8728857040405273 8.715883255004883 -9.5367431640625e-07
  endloop
endfacet
facet normal 0.0 0.0 0.0
  outer loop
    vertex -12.5 12.257357597351074 -7.152557373046875e-07
    vertex -0.8728857040405273 8.715883255004883 -9.5367431640625e-07
    vertex -1.054300308227539 8.542433738708496 -9.5367431640625e-07
  endloop
endfacet
facet normal 0.0 0.0 0.0
  outer loop
    vertex -1.054300308227539 8.542433738708496 -9.5367431640625e-07
    vertex -1.2018280029296875 8.33937931060791 -9.5367431640625e-07
    vertex -12.5 12.257357597351074 -7.152557373046875e-07
  endloop
endfacet
facet normal 0.0 0.0 0.0
  outer loop
    vertex -12.5 12.257357597351074 -7.152557373046875e-07
    vertex -1.2018280029296875 8.33937931060791 -9.5367431640625e-07
    vertex -1.3107290267944336 8.11324405670166 -9.5367431640625e-07
  endloop
endfacet
facet normal 0.0 0.0 0.0
  outer loop
    vertex -12.5 12.257357597351074 -7.152557373046875e-07
    vertex -1.3107290267944336 8.11324405670166 -9.5367431640625e-07
    vertex -1.3775005340576172 7.871299743652344 -9.5367431640625e-07
  endloop
endfacet
facet normal 0.0 0.0 0.0
  outer loop
    vertex 12.5 12.257357597351074 1.9999983310699463
    vertex 12.5 12.257357597351074 -7.152557373046875e-07
    vertex -12.5 12.257357597351074 1.9999983310699463
  endloop
endfacet
facet normal 0.0 0.0 0.0
  outer loop
    vertex -12.5 12.257357597351074 1.9999983310699463
    vertex 12.5 12.257357597351074 -7.152557373046875e-07
    vertex -12.5 12.257357597351074 -7.152557373046875e-07
  endloop
endfacet
facet normal 0.0 0.0 0.0
  outer loop
    vertex -12.5 -7.742639541625977 1.9999992847442627
    vertex -12.5 -10.096193313598633 2.474872350692749
    vertex -12.5 0.2573590874671936 9.999998092651367
  endloop
endfacet
facet normal 0.0 0.0 0.0
  outer loop
    vertex -12.5 0.2573590874671936 9.999998092651367
    vertex -12.5 -10.096193313598633 2.474872350692749
    vertex -12.5 0.5104077458381653 13.081473350524902
  endloop
endfacet
facet normal 0.0 0.0 0.0
  outer loop
    vertex -12.5 0.2573590874671936 9.999998092651367
    vertex -12.5 0.5104077458381653 13.081473350524902
    vertex -12.5 2.985280752182007 12.727919578552246
  endloop
endfacet
facet normal 0.0 0.0 0.0
  outer loop
    vertex -12.5 2.985280752182007 12.727919578552246
    vertex -12.5 0.5104077458381653 13.081473350524902
    vertex -12.5 -0.9038059115409851 14.495686531066895
  endloop
endfacet
facet normal 0.0 0.0 0.0
  outer loop
    vertex -12.5 2.985280752182007 12.727919578552246
    vertex -12.5 -0.9038059115409851 14.495686531066895
    vertex -12.5 -1.257359266281128 16.97056007385254
  endloop
endfacet
facet normal 0.0 0.0 0.0
  outer loop
    vertex -12.5 -1.257359266281128 16.97056007385254
    vertex -12.5 -0.9038059115409851 14.495686531066895
    vertex -12.5 -3.378679037094116 14.84924030303955
  endloop
endfacet
facet normal 0.0 0.0 0.0
  outer loop
    vertex -12.5 -10.096193313598633 2.474872350692749
    vertex -12.5 -7.742639541625977 1.9999992847442627
    vertex -12.5 -9.742639541625977 -7.152557373046875e-07
  endloop
endfacet
facet normal 0.0 0.0 0.0
  outer loop
    vertex -12.5 -9.742639541625977 -7.152557373046875e-07
    vertex -12.5 -7.742639541625977 1.9999992847442627
    vertex -12.5 0.2573589086532593 1.9999985694885254
  endloop
endfacet
facet normal 0.0 0.0 0.0
  outer loop
    vertex -12.5 -9.742639541625977 -7.152557373046875e-07
    vertex -12.5 0.2573589086532593 1.9999985694885254
    vertex -12.5 12.257357597351074 -7.152557373046875e-07
  endloop
endfacet
facet normal 0.0 0.0 0.0
  outer loop
    vertex -12.5 12.257357597351074 -7.152557373046875e-07
    vertex -12.5 0.2573589086532593 1.9999985694885254
    vertex -12.5 2.9852802753448486 1.9999990463256836
  endloop
endfacet
facet normal 0.0 0.0 0.0
  outer loop
    vertex -12.5 12.257357597351074 -7.152557373046875e-07
    vertex -12.5 2.9852802753448486 1.9999990463256836
    vertex -12.5 12.257357597351074 1.9999983310699463
  endloop
endfacet
facet normal 0.0 0.0 0.0
  outer loop
    vertex -12.5 2.9852802753448486 1.9999990463256836
    vertex -12.5 0.2573589086532593 1.9999985694885254
    vertex -12.5 0.2573590874671936 9.999998092651367
  endloop
endfacet
facet normal 0.0 0.0 0.0
  outer loop
    vertex -12.5 2.985280752182007 12.727919578552246
    vertex -12.5 2.9852802753448486 1.9999990463256836
    vertex -12.5 0.2573590874671936 9.999998092651367
  endloop
endfacet
facet normal 0.0 0.0 0.0
  outer loop
    vertex -12.5 -10.096193313598633 2.474872350692749
    vertex -12.5 -9.742639541625977 -7.152557373046875e-07
    vertex -12.5 -11.510406494140625 3.8890860080718994
  endloop
endfacet
facet normal 0.0 0.0 0.0
  outer loop
    vertex -12.5 -11.510406494140625 3.8890860080718994
    vertex -12.5 -9.742639541625977 -7.152557373046875e-07
    vertex -12.5 -13.985279083251953 4.242639541625977
  endloop
endfacet
facet normal 0.0 0.0 0.0
  outer loop
    vertex -12.5 -11.510406494140625 3.8890860080718994
    vertex -12.5 -13.985279083251953 4.242639541625977
    vertex -12.5 -11.863960266113281 6.363959312438965
  endloop
endfacet
facet normal 0.0 0.0 0.0
  outer loop
    vertex 12.5 -11.863960266113281 6.363959312438965
    vertex 12.5 -11.510406494140625 3.8890860080718994
    vertex -12.5 -11.863960266113281 6.363959312438965
  endloop
endfacet
facet normal 0.0 0.0 0.0
  outer loop
    vertex -12.5 -11.863960266113281 6.363959312438965
    vertex 12.5 -11.510406494140625 3.8890860080718994
    vertex -12.5 -11.510406494140625 3.8890860080718994
  endloop
endfacet
facet normal 0.0 0.0 0.0
  outer loop
    vertex 12.5 -13.985279083251953 4.242639541625977
    vertex 12.5 -11.863960266113281 6.363959312438965
    vertex -12.5 -13.985279083251953 4.242639541625977
  endloop
endfacet
facet normal 0.0 0.0 0.0
  outer loop
    vertex -12.5 -13.985279083251953 4.242639541625977
    vertex 12.5 -11.863960266113281 6.363959312438965
    vertex -12.5 -11.863960266113281 6.363959312438965
  endloop
endfacet
facet normal 0.0 0.0 0.0
  outer loop
    vertex 12.5 -3.378679037094116 14.84924030303955
    vertex 12.5 -1.257359266281128 16.97056007385254
    vertex -12.5 -3.378679037094116 14.84924030303955
  endloop
endfacet
facet normal 0.0 0.0 0.0
  outer loop
    vertex -12.5 -3.378679037094116 14.84924030303955
    vertex 12.5 -1.257359266281128 16.97056007385254
    vertex -12.5 -1.257359266281128 16.97056007385254
  endloop
endfacet
facet normal 0.0 0.0 0.0
  outer loop
    vertex 12.5 -0.9038059115409851 14.495686531066895
    vertex 12.5 -3.378679037094116 14.84924030303955
    vertex -12.5 -0.9038059115409851 14.495686531066895
  endloop
endfacet
facet normal 0.0 0.0 0.0
  outer loop
    vertex -12.5 -0.9038059115409851 14.495686531066895
    vertex 12.5 -3.378679037094116 14.84924030303955
    vertex -12.5 -3.378679037094116 14.84924030303955
  endloop
endfacet
facet normal 0.0 0.0 0.0
  outer loop
    vertex 12.5 -10.096193313598633 2.474872350692749
    vertex -12.5 -10.096193313598633 2.474872350692749
    vertex 12.5 -11.510406494140625 3.8890860080718994
  endloop
endfacet
facet normal 0.0 0.0 0.0
  outer loop
    vertex 12.5 -11.510406494140625 3.8890860080718994
    vertex -12.5 -10.096193313598633 2.474872350692749
    vertex -12.5 -11.510406494140625 3.8890860080718994
  endloop
endfacet
facet normal 0.0 0.0 0.0
  outer loop
    vertex -12.5 0.5104077458381653 13.081473350524902
    vertex 12.5 0.5104077458381653 13.081473350524902
    vertex -12.5 -0.9038059115409851 14.495686531066895
  endloop
endfacet
facet normal 0.0 0.0 0.0
  outer loop
    vertex -12.5 -0.9038059115409851 14.495686531066895
    vertex 12.5 0.5104077458381653 13.081473350524902
    vertex 12.5 -0.9038059115409851 14.495686531066895
  endloop
endfacet
facet normal 0.0 0.0 0.0
  outer loop
    vertex -12.5 -10.096193313598633 2.474872350692749
    vertex 12.5 -10.096193313598633 2.474872350692749
    vertex -12.5 0.5104077458381653 13.081473350524902
  endloop
endfacet
facet normal 0.0 0.0 0.0
  outer loop
    vertex -12.5 0.5104077458381653 13.081473350524902
    vertex 12.5 -10.096193313598633 2.474872350692749
    vertex 12.5 0.5104077458381653 13.081473350524902
  endloop
endfacet
facet normal 0.0 0.0 0.0
  outer loop
    vertex 12.5 -1.257359266281128 16.97056007385254
    vertex 12.5 -0.9038059115409851 14.495686531066895
    vertex 12.5 2.985280752182007 12.727919578552246
  endloop
endfacet
facet normal 0.0 0.0 0.0
  outer loop
    vertex 12.5 2.985280752182007 12.727919578552246
    vertex 12.5 -0.9038059115409851 14.495686531066895
    vertex 12.5 0.5104077458381653 13.081473350524902
  endloop
endfacet
facet normal 0.0 0.0 0.0
  outer loop
    vertex 12.5 2.985280752182007 12.727919578552246
    vertex 12.5 0.5104077458381653 13.081473350524902
    vertex 12.5 0.2573590874671936 9.999998092651367
  endloop
endfacet
facet normal 0.0 0.0 0.0
  outer loop
    vertex 12.5 0.2573590874671936 9.999998092651367
    vertex 12.5 0.5104077458381653 13.081473350524902
    vertex 12.5 -10.096193313598633 2.474872350692749
  endloop
endfacet
facet normal 0.0 0.0 0.0
  outer loop
    vertex 12.5 0.2573590874671936 9.999998092651367
    vertex 12.5 -10.096193313598633 2.474872350692749
    vertex 12.5 -7.742639541625977 1.9999992847442627
  endloop
endfacet
facet normal 0.0 0.0 0.0
  outer loop
    vertex 12.5 -7.742639541625977 1.9999992847442627
    vertex 12.5 -10.096193313598633 2.474872350692749
    vertex 12.5 -9.742639541625977 -7.152557373046875e-07
  endloop
endfacet
facet normal 0.0 0.0 0.0
  outer loop
    vertex 12.5 -7.742639541625977 1.9999992847442627
    vertex 12.5 -9.742639541625977 -7.152557373046875e-07
    vertex 12.5 0.2573589086532593 1.9999985694885254
  endloop
endfacet
facet normal 0.0 0.0 0.0
  outer loop
    vertex 12.5 0.2573589086532593 1.9999985694885254
    vertex 12.5 -9.742639541625977 -7.152557373046875e-07
    vertex 12.5 12.257357597351074 -7.152557373046875e-07
  endloop
endfacet
facet normal 0.0 0.0 0.0
  outer loop
    vertex 12.5 0.2573589086532593 1.9999985694885254
    vertex 12.5 12.257357597351074 -7.152557373046875e-07
    vertex 12.5 2.9852802753448486 1.9999990463256836
  endloop
endfacet
facet normal 0.0 0.0 0.0
  outer loop
    vertex 12.5 2.9852802753448486 1.9999990463256836
    vertex 12.5 12.257357597351074 -7.152557373046875e-07
    vertex 12.5 12.257357597351074 1.9999983310699463
  endloop
endfacet
facet normal 0.0 0.0 0.0
  outer loop
    vertex 12.5 -1.257359266281128 16.97056007385254
    vertex 12.5 -3.378679037094116 14.84924030303955
    vertex 12.5 -0.9038059115409851 14.495686531066895
  endloop
endfacet
facet normal 0.0 0.0 0.0
  outer loop
    vertex 12.5 -10.096193313598633 2.474872350692749
    vertex 12.5 -11.510406494140625 3.8890860080718994
    vertex 12.5 -9.742639541625977 -7.152557373046875e-07
  endloop
endfacet
facet normal 0.0 0.0 0.0
  outer loop
    vertex 12.5 -9.742639541625977 -7.152557373046875e-07
    vertex 12.5 -11.510406494140625 3.8890860080718994
    vertex 12.5 -13.985279083251953 4.242639541625977
  endloop
endfacet
facet normal 0.0 0.0 0.0
  outer loop
    vertex 12.5 -13.985279083251953 4.242639541625977
    vertex 12.5 -11.510406494140625 3.8890860080718994
    vertex 12.5 -11.863960266113281 6.363959312438965
  endloop
endfacet
facet normal 0.0 0.0 0.0
  outer loop
    vertex 12.5 0.2573589086532593 1.9999985694885254
    vertex 12.5 2.9852802753448486 1.9999990463256836
    vertex 12.5 0.2573590874671936 9.999998092651367
  endloop
endfacet
facet normal 0.0 0.0 0.0
  outer loop
    vertex 12.5 0.2573590874671936 9.999998092651367
    vertex 12.5 2.9852802753448486 1.9999990463256836
    vertex 12.5 2.985280752182007 12.727919578552246
  endloop
endfacet
endsolid Uranium STLWriter Thu 17 Nov 2022 10:51:51
